<svg viewBox="0 0 800 400" xmlns="http://www.w3.org/2000/svg">
  <rect width="100%" height="100%" fill="#121212" />
  <line x1="60" y1="200" x2="740" y2="200" stroke="#333" stroke-width="1" />
  <text x="400" y="40" text-anchor="middle" font-family="sans-serif" font-size="24" font-weight="bold" fill="#fff">Sinal Escalonado (fator=3.000000)</text>
  <line x1="60" y1="326.667" x2="740" y2="326.667" stroke="#888" stroke-width="2" />
  <line x1="60" y1="326.667" x2="60" y2="215.556" stroke="#ffaa00" stroke-width="3" stroke-linecap="round" />
  <circle cx="60" cy="215.556" r="6" fill="#ffaa00" />
  <text x="60" y="351.667" text-anchor="middle" font-family="monospace" font-size="14" fill="#aaa">0</text>
  <line x1="105.333" y1="326.667" x2="105.333" y2="326.667" stroke="#ffaa00" stroke-width="3" stroke-linecap="round" />
  <circle cx="105.333" cy="326.667" r="6" fill="#ffaa00" />
  <text x="105.333" y="311.667" text-anchor="middle" font-family="monospace" font-size="14" fill="#aaa">1</text>
  <line x1="150.667" y1="326.667" x2="150.667" y2="326.667" stroke="#ffaa00" stroke-width="3" stroke-linecap="round" />
  <circle cx="150.667" cy="326.667" r="6" fill="#ffaa00" />
  <text x="150.667" y="311.667" text-anchor="middle" font-family="monospace" font-size="14" fill="#aaa">2</text>
  <line x1="196" y1="326.667" x2="196" y2="215.556" stroke="#ffaa00" stroke-width="3" stroke-linecap="round" />
  <circle cx="196" cy="215.556" r="6" fill="#ffaa00" />
  <text x="196" y="351.667" text-anchor="middle" font-family="monospace" font-size="14" fill="#aaa">3</text>
  <line x1="241.333" y1="326.667" x2="241.333" y2="326.667" stroke="#ffaa00" stroke-width="3" stroke-linecap="round" />
  <circle cx="241.333" cy="326.667" r="6" fill="#ffaa00" />
  <text x="241.333" y="311.667" text-anchor="middle" font-family="monospace" font-size="14" fill="#aaa">4</text>
  <line x1="286.667" y1="326.667" x2="286.667" y2="326.667" stroke="#ffaa00" stroke-width="3" stroke-linecap="round" />
  <circle cx="286.667" cy="326.667" r="6" fill="#ffaa00" />
  <text x="286.667" y="311.667" text-anchor="middle" font-family="monospace" font-size="14" fill="#aaa">5</text>
  <line x1="332" y1="326.667" x2="332" y2="215.556" stroke="#ffaa00" stroke-width="3" stroke-linecap="round" />
  <circle cx="332" cy="215.556" r="6" fill="#ffaa00" />
  <text x="332" y="351.667" text-anchor="middle" font-family="monospace" font-size="14" fill="#aaa">6</text>
  <line x1="377.333" y1="326.667" x2="377.333" y2="326.667" stroke="#ffaa00" stroke-width="3" stroke-linecap="round" />
  <circle cx="377.333" cy="326.667" r="6" fill="#ffaa00" />
  <text x="377.333" y="311.667" text-anchor="middle" font-family="monospace" font-size="14" fill="#aaa">7</text>
  <line x1="422.667" y1="326.667" x2="422.667" y2="326.667" stroke="#ffaa00" stroke-width="3" stroke-linecap="round" />
  <circle cx="422.667" cy="326.667" r="6" fill="#ffaa00" />
  <text x="422.667" y="311.667" text-anchor="middle" font-family="monospace" font-size="14" fill="#aaa">8</text>
  <line x1="468" y1="326.667" x2="468" y2="104.444" stroke="#ffaa00" stroke-width="3" stroke-linecap="round" />
  <circle cx="468" cy="104.444" r="6" fill="#ffaa00" />
  <text x="468" y="351.667" text-anchor="middle" font-family="monospace" font-size="14" fill="#aaa">9</text>
  <line x1="513.333" y1="326.667" x2="513.333" y2="326.667" stroke="#ffaa00" stroke-width="3" stroke-linecap="round" />
  <circle cx="513.333" cy="326.667" r="6" fill="#ffaa00" />
  <text x="513.333" y="311.667" text-anchor="middle" font-family="monospace" font-size="14" fill="#aaa">10</text>
  <line x1="558.667" y1="326.667" x2="558.667" y2="326.667" stroke="#ffaa00" stroke-width="3" stroke-linecap="round" />
  <circle cx="558.667" cy="326.667" r="6" fill="#ffaa00" />
  <text x="558.667" y="311.667" text-anchor="middle" font-family="monospace" font-size="14" fill="#aaa">11</text>
  <line x1="604" y1="326.667" x2="604" y2="104.444" stroke="#ffaa00" stroke-width="3" stroke-linecap="round" />
  <circle cx="604" cy="104.444" r="6" fill="#ffaa00" />
  <text x="604" y="351.667" text-anchor="middle" font-family="monospace" font-size="14" fill="#aaa">12</text>
  <line x1="649.333" y1="326.667" x2="649.333" y2="326.667" stroke="#ffaa00" stroke-width="3" stroke-linecap="round" />
  <circle cx="649.333" cy="326.667" r="6" fill="#ffaa00" />
  <text x="649.333" y="311.667" text-anchor="middle" font-family="monospace" font-size="14" fill="#aaa">13</text>
  <line x1="694.667" y1="326.667" x2="694.667" y2="326.667" stroke="#ffaa00" stroke-width="3" stroke-linecap="round" />
  <circle cx="694.667" cy="326.667" r="6" fill="#ffaa00" />
  <text x="694.667" y="311.667" text-anchor="middle" font-family="monospace" font-size="14" fill="#aaa">14</text>
  <line x1="740" y1="326.667" x2="740" y2="104.444" stroke="#ffaa00" stroke-width="3" stroke-linecap="round" />
  <circle cx="740" cy="104.444" r="6" fill="#ffaa00" />
  <text x="740" y="351.667" text-anchor="middle" font-family="monospace" font-size="14" fill="#aaa">15</text>
</svg>